<svg xmlns="http://www.w3.org/2000/svg" width="180" height="180" viewBox="0 0 180 180" role="img" aria-labelledby="t">
 <title id="t">Mittwoch</title><path d="M29 43 38 9l31 31M151 43 142 9l-31 31" fill="#F28A2E" stroke="#23395D" stroke-width="7" stroke-linejoin="round"/><path d="m38 25 5-11 12 18m87-7-5-11-12 18" fill="#FFF1DA"/>
 <rect x="10" y="33" width="160" height="137" rx="31" fill="#E1F6E7" stroke="#23395D" stroke-width="7"/><path d="M13 69h154" stroke="#23395D" stroke-width="7"/><path d="M37 32v24m106-24v24" stroke="#23395D" stroke-width="10" stroke-linecap="round"/>
 <path d="M43 124c9-33 25-42 47-42s38 9 47 42c-10 20-27 30-47 30s-37-10-47-30Z" fill="#FFFDF7" stroke="#83C995" stroke-width="4"/>
 <path d="M25 137c16 0 22 10 30 23-17 3-31-5-35-16 0-3 2-6 5-7Z" fill="#F28A2E" stroke="#23395D" stroke-width="5"/>
 <text x="90" y="133" text-anchor="middle" font-family="Nunito,Arial,sans-serif" font-size="48" font-weight="900" fill="#23395D">Mi</text>
</svg>
